{
	"asset":{
		"generator":"Khronos glTF Blender I/O v4.0.44",
		"version":"2.0"
	},
	"scene":0,
	"scenes":[
		{
			"name":"Scene",
			"nodes":[
				0
			]
		}
	],
	"nodes":[
		{
			"mesh":0,
			"name":"Dagger"
		}
	],
	"materials":[
		{
			"doubleSided":true,
			"name":"Placeholder3",
			"pbrMetallicRoughness":{
				"baseColorFactor":[
					0.8000074625015259,
					0.3487849533557892,
					0.5358224511146545,
					1
				],
				"metallicFactor":0,
				"roughnessFactor":0.5
			}
		},
		{
			"doubleSided":true,
			"name":"Placeholder1",
			"pbrMetallicRoughness":{
				"baseColorFactor":[
					0.7896374464035034,
					0.8000156879425049,
					0.39040327072143555,
					1
				],
				"metallicFactor":0,
				"roughnessFactor":0.5
			}
		},
		{
			"doubleSided":true,
			"name":"Placeholder2",
			"pbrMetallicRoughness":{
				"baseColorFactor":[
					0.23188084363937378,
					0.8000074625015259,
					0.3371920585632324,
					1
				],
				"metallicFactor":0,
				"roughnessFactor":0.5
			}
		}
	],
	"meshes":[
		{
			"name":"Plane.015",
			"primitives":[
				{
					"attributes":{
						"POSITION":0,
						"NORMAL":1,
						"TEXCOORD_0":2
					},
					"indices":3,
					"material":0
				},
				{
					"attributes":{
						"POSITION":4,
						"NORMAL":5,
						"TEXCOORD_0":6
					},
					"indices":7,
					"material":1
				},
				{
					"attributes":{
						"POSITION":8,
						"NORMAL":9,
						"TEXCOORD_0":10
					},
					"indices":11,
					"material":2
				}
			]
		}
	],
	"accessors":[
		{
			"bufferView":0,
			"componentType":5126,
			"count":234,
			"max":[
				-0.23199671506881714,
				0.021424030885100365,
				0.09448578208684921
			],
			"min":[
				-0.610538899898529,
				-0.02150041237473488,
				-0.07474523782730103
			],
			"type":"VEC3"
		},
		{
			"bufferView":1,
			"componentType":5126,
			"count":234,
			"type":"VEC3"
		},
		{
			"bufferView":2,
			"componentType":5126,
			"count":234,
			"type":"VEC2"
		},
		{
			"bufferView":3,
			"componentType":5123,
			"count":342,
			"type":"SCALAR"
		},
		{
			"bufferView":4,
			"componentType":5126,
			"count":329,
			"max":[
				0.7746139764785767,
				0.016128061339259148,
				0.07920058816671371
			],
			"min":[
				-0.2272787094116211,
				-0.016128061339259148,
				-0.136385977268219
			],
			"type":"VEC3"
		},
		{
			"bufferView":5,
			"componentType":5126,
			"count":329,
			"type":"VEC3"
		},
		{
			"bufferView":6,
			"componentType":5126,
			"count":329,
			"type":"VEC2"
		},
		{
			"bufferView":7,
			"componentType":5123,
			"count":513,
			"type":"SCALAR"
		},
		{
			"bufferView":8,
			"componentType":5126,
			"count":268,
			"max":[
				-0.17502504587173462,
				0.02149612456560135,
				0.19228996336460114
			],
			"min":[
				-0.6845183372497559,
				-0.02149612456560135,
				-0.18751513957977295
			],
			"type":"VEC3"
		},
		{
			"bufferView":9,
			"componentType":5126,
			"count":268,
			"type":"VEC3"
		},
		{
			"bufferView":10,
			"componentType":5126,
			"count":268,
			"type":"VEC2"
		},
		{
			"bufferView":11,
			"componentType":5123,
			"count":408,
			"type":"SCALAR"
		}
	],
	"bufferViews":[
		{
			"buffer":0,
			"byteLength":2808,
			"byteOffset":0,
			"target":34962
		},
		{
			"buffer":0,
			"byteLength":2808,
			"byteOffset":2808,
			"target":34962
		},
		{
			"buffer":0,
			"byteLength":1872,
			"byteOffset":5616,
			"target":34962
		},
		{
			"buffer":0,
			"byteLength":684,
			"byteOffset":7488,
			"target":34963
		},
		{
			"buffer":0,
			"byteLength":3948,
			"byteOffset":8172,
			"target":34962
		},
		{
			"buffer":0,
			"byteLength":3948,
			"byteOffset":12120,
			"target":34962
		},
		{
			"buffer":0,
			"byteLength":2632,
			"byteOffset":16068,
			"target":34962
		},
		{
			"buffer":0,
			"byteLength":1026,
			"byteOffset":18700,
			"target":34963
		},
		{
			"buffer":0,
			"byteLength":3216,
			"byteOffset":19728,
			"target":34962
		},
		{
			"buffer":0,
			"byteLength":3216,
			"byteOffset":22944,
			"target":34962
		},
		{
			"buffer":0,
			"byteLength":2144,
			"byteOffset":26160,
			"target":34962
		},
		{
			"buffer":0,
			"byteLength":816,
			"byteOffset":28304,
			"target":34963
		}
	],
	"buffers":[
		{
			"byteLength":29120,
			"uri":"dagger.bin"
		}
	]
}
