{
	"asset":{
		"generator":"Khronos glTF Blender I/O v4.0.44",
		"version":"2.0"
	},
	"scene":0,
	"scenes":[
		{
			"name":"Scene",
			"nodes":[
				0
			]
		}
	],
	"nodes":[
		{
			"mesh":0,
			"name":"Boombox"
		}
	],
	"materials":[
		{
			"doubleSided":true,
			"name":"Placeholder1",
			"pbrMetallicRoughness":{
				"baseColorFactor":[
					0.7896374464035034,
					0.8000156879425049,
					0.39040327072143555,
					1
				],
				"metallicFactor":0,
				"roughnessFactor":0.5
			}
		},
		{
			"doubleSided":true,
			"name":"Placeholder2",
			"pbrMetallicRoughness":{
				"baseColorFactor":[
					0.23188084363937378,
					0.8000074625015259,
					0.3371920585632324,
					1
				],
				"metallicFactor":0,
				"roughnessFactor":0.5
			}
		},
		{
			"doubleSided":true,
			"name":"Placeholder3",
			"pbrMetallicRoughness":{
				"baseColorFactor":[
					0.8000074625015259,
					0.3487849533557892,
					0.5358224511146545,
					1
				],
				"metallicFactor":0,
				"roughnessFactor":0.5
			}
		},
		{
			"doubleSided":true,
			"name":"Placeholder4",
			"pbrMetallicRoughness":{
				"baseColorFactor":[
					0.1857464611530304,
					0.4343360662460327,
					0.8000074625015259,
					1
				],
				"metallicFactor":0,
				"roughnessFactor":0.5
			}
		}
	],
	"meshes":[
		{
			"name":"Cube.006",
			"primitives":[
				{
					"attributes":{
						"POSITION":0,
						"NORMAL":1,
						"TEXCOORD_0":2
					},
					"indices":3,
					"material":0
				},
				{
					"attributes":{
						"POSITION":4,
						"NORMAL":5,
						"TEXCOORD_0":6
					},
					"indices":7,
					"material":1
				},
				{
					"attributes":{
						"POSITION":8,
						"NORMAL":9,
						"TEXCOORD_0":10
					},
					"indices":11,
					"material":2
				},
				{
					"attributes":{
						"POSITION":12,
						"NORMAL":13,
						"TEXCOORD_0":14
					},
					"indices":15,
					"material":3
				}
			]
		}
	],
	"accessors":[
		{
			"bufferView":0,
			"componentType":5126,
			"count":260,
			"max":[
				0.25,
				0.22507311403751373,
				0.10267001390457153
			],
			"min":[
				-0.25,
				-0.0007897168397903442,
				-0.10267001390457153
			],
			"type":"VEC3"
		},
		{
			"bufferView":1,
			"componentType":5126,
			"count":260,
			"type":"VEC3"
		},
		{
			"bufferView":2,
			"componentType":5126,
			"count":260,
			"type":"VEC2"
		},
		{
			"bufferView":3,
			"componentType":5123,
			"count":528,
			"type":"SCALAR"
		},
		{
			"bufferView":4,
			"componentType":5126,
			"count":12,
			"max":[
				0.25,
				0.17373591661453247,
				0.10267001390457153
			],
			"min":[
				-0.25,
				0.02893434837460518,
				0.10267001390457153
			],
			"type":"VEC3"
		},
		{
			"bufferView":5,
			"componentType":5126,
			"count":12,
			"type":"VEC3"
		},
		{
			"bufferView":6,
			"componentType":5126,
			"count":12,
			"type":"VEC2"
		},
		{
			"bufferView":7,
			"componentType":5123,
			"count":24,
			"type":"SCALAR"
		},
		{
			"bufferView":8,
			"componentType":5126,
			"count":4,
			"max":[
				0.09513141214847565,
				0.14401185512542725,
				0.10267001390457153
			],
			"min":[
				-0.09513141214847565,
				0.028934352099895477,
				0.10267001390457153
			],
			"type":"VEC3"
		},
		{
			"bufferView":9,
			"componentType":5126,
			"count":4,
			"type":"VEC3"
		},
		{
			"bufferView":10,
			"componentType":5126,
			"count":4,
			"type":"VEC2"
		},
		{
			"bufferView":11,
			"componentType":5123,
			"count":6,
			"type":"SCALAR"
		},
		{
			"bufferView":12,
			"componentType":5126,
			"count":4,
			"max":[
				0.09513141214847565,
				0.028934352099895477,
				0.10267001390457153
			],
			"min":[
				-0.09513141214847565,
				-0.0007897168397903442,
				0.10267001390457153
			],
			"type":"VEC3"
		},
		{
			"bufferView":13,
			"componentType":5126,
			"count":4,
			"type":"VEC3"
		},
		{
			"bufferView":14,
			"componentType":5126,
			"count":4,
			"type":"VEC2"
		},
		{
			"bufferView":15,
			"componentType":5123,
			"count":6,
			"type":"SCALAR"
		}
	],
	"bufferViews":[
		{
			"buffer":0,
			"byteLength":3120,
			"byteOffset":0,
			"target":34962
		},
		{
			"buffer":0,
			"byteLength":3120,
			"byteOffset":3120,
			"target":34962
		},
		{
			"buffer":0,
			"byteLength":2080,
			"byteOffset":6240,
			"target":34962
		},
		{
			"buffer":0,
			"byteLength":1056,
			"byteOffset":8320,
			"target":34963
		},
		{
			"buffer":0,
			"byteLength":144,
			"byteOffset":9376,
			"target":34962
		},
		{
			"buffer":0,
			"byteLength":144,
			"byteOffset":9520,
			"target":34962
		},
		{
			"buffer":0,
			"byteLength":96,
			"byteOffset":9664,
			"target":34962
		},
		{
			"buffer":0,
			"byteLength":48,
			"byteOffset":9760,
			"target":34963
		},
		{
			"buffer":0,
			"byteLength":48,
			"byteOffset":9808,
			"target":34962
		},
		{
			"buffer":0,
			"byteLength":48,
			"byteOffset":9856,
			"target":34962
		},
		{
			"buffer":0,
			"byteLength":32,
			"byteOffset":9904,
			"target":34962
		},
		{
			"buffer":0,
			"byteLength":12,
			"byteOffset":9936,
			"target":34963
		},
		{
			"buffer":0,
			"byteLength":48,
			"byteOffset":9948,
			"target":34962
		},
		{
			"buffer":0,
			"byteLength":48,
			"byteOffset":9996,
			"target":34962
		},
		{
			"buffer":0,
			"byteLength":32,
			"byteOffset":10044,
			"target":34962
		},
		{
			"buffer":0,
			"byteLength":12,
			"byteOffset":10076,
			"target":34963
		}
	],
	"buffers":[
		{
			"byteLength":10088,
			"uri":"boombox.bin"
		}
	]
}
