{
	"asset":{
		"generator":"Khronos glTF Blender I/O v4.0.44",
		"version":"2.0"
	},
	"scene":0,
	"scenes":[
		{
			"name":"Scene",
			"nodes":[
				0
			]
		}
	],
	"nodes":[
		{
			"mesh":0,
			"name":"Box"
		}
	],
	"materials":[
		{
			"doubleSided":true,
			"name":"Placeholder1",
			"pbrMetallicRoughness":{
				"baseColorFactor":[
					0.7896374464035034,
					0.8000156879425049,
					0.39040327072143555,
					1
				],
				"metallicFactor":0,
				"roughnessFactor":0.5
			}
		},
		{
			"doubleSided":true,
			"name":"Placeholder2",
			"pbrMetallicRoughness":{
				"baseColorFactor":[
					0.23188084363937378,
					0.8000074625015259,
					0.3371920585632324,
					1
				],
				"metallicFactor":0,
				"roughnessFactor":0.5
			}
		}
	],
	"meshes":[
		{
			"name":"Cube.004",
			"primitives":[
				{
					"attributes":{
						"POSITION":0,
						"NORMAL":1,
						"TEXCOORD_0":2
					},
					"indices":3,
					"material":0
				},
				{
					"attributes":{
						"POSITION":4,
						"NORMAL":5,
						"TEXCOORD_0":6
					},
					"indices":7,
					"material":1
				}
			]
		}
	],
	"accessors":[
		{
			"bufferView":0,
			"componentType":5126,
			"count":104,
			"max":[
				0.5,
				1,
				0.5
			],
			"min":[
				-0.5,
				0,
				-0.5
			],
			"type":"VEC3"
		},
		{
			"bufferView":1,
			"componentType":5126,
			"count":104,
			"type":"VEC3"
		},
		{
			"bufferView":2,
			"componentType":5126,
			"count":104,
			"type":"VEC2"
		},
		{
			"bufferView":3,
			"componentType":5123,
			"count":204,
			"type":"SCALAR"
		},
		{
			"bufferView":4,
			"componentType":5126,
			"count":16,
			"max":[
				0.44999998807907104,
				0.8999999761581421,
				0.44999998807907104
			],
			"min":[
				-0.44999998807907104,
				0.09999999403953552,
				-0.44999998807907104
			],
			"type":"VEC3"
		},
		{
			"bufferView":5,
			"componentType":5126,
			"count":16,
			"type":"VEC3"
		},
		{
			"bufferView":6,
			"componentType":5126,
			"count":16,
			"type":"VEC2"
		},
		{
			"bufferView":7,
			"componentType":5123,
			"count":24,
			"type":"SCALAR"
		}
	],
	"bufferViews":[
		{
			"buffer":0,
			"byteLength":1248,
			"byteOffset":0,
			"target":34962
		},
		{
			"buffer":0,
			"byteLength":1248,
			"byteOffset":1248,
			"target":34962
		},
		{
			"buffer":0,
			"byteLength":832,
			"byteOffset":2496,
			"target":34962
		},
		{
			"buffer":0,
			"byteLength":408,
			"byteOffset":3328,
			"target":34963
		},
		{
			"buffer":0,
			"byteLength":192,
			"byteOffset":3736,
			"target":34962
		},
		{
			"buffer":0,
			"byteLength":192,
			"byteOffset":3928,
			"target":34962
		},
		{
			"buffer":0,
			"byteLength":128,
			"byteOffset":4120,
			"target":34962
		},
		{
			"buffer":0,
			"byteLength":48,
			"byteOffset":4248,
			"target":34963
		}
	],
	"buffers":[
		{
			"byteLength":4296,
			"uri":"box.bin"
		}
	]
}
