{
	"asset":{
		"generator":"Khronos glTF Blender I/O v4.0.44",
		"version":"2.0"
	},
	"scene":0,
	"scenes":[
		{
			"name":"Scene",
			"nodes":[
				0
			]
		}
	],
	"nodes":[
		{
			"mesh":0,
			"name":"GridFenceDoor"
		}
	],
	"materials":[
		{
			"doubleSided":true,
			"name":"Placeholder1",
			"pbrMetallicRoughness":{
				"baseColorFactor":[
					0.7896374464035034,
					0.8000156879425049,
					0.39040327072143555,
					1
				],
				"metallicFactor":0,
				"roughnessFactor":0.5
			}
		},
		{
			"doubleSided":true,
			"name":"Placeholder2",
			"pbrMetallicRoughness":{
				"baseColorFactor":[
					0.23188084363937378,
					0.8000074625015259,
					0.3371920585632324,
					1
				],
				"metallicFactor":0,
				"roughnessFactor":0.5
			}
		}
	],
	"meshes":[
		{
			"name":"Cube.003",
			"primitives":[
				{
					"attributes":{
						"POSITION":0,
						"NORMAL":1,
						"TEXCOORD_0":2
					},
					"indices":3,
					"material":0
				},
				{
					"attributes":{
						"POSITION":4,
						"NORMAL":5,
						"TEXCOORD_0":6
					},
					"indices":7,
					"material":1
				}
			]
		}
	],
	"accessors":[
		{
			"bufferView":0,
			"componentType":5126,
			"count":16,
			"max":[
				1.028467059135437,
				2.346640110015869,
				0
			],
			"min":[
				-1.028467059135437,
				0.14729535579681396,
				-0.3420189917087555
			],
			"type":"VEC3"
		},
		{
			"bufferView":1,
			"componentType":5126,
			"count":16,
			"type":"VEC3"
		},
		{
			"bufferView":2,
			"componentType":5126,
			"count":16,
			"type":"VEC2"
		},
		{
			"bufferView":3,
			"componentType":5123,
			"count":36,
			"type":"SCALAR"
		},
		{
			"bufferView":4,
			"componentType":5126,
			"count":200,
			"max":[
				1.0528345108032227,
				2.4050326347351074,
				0.05283445119857788
			],
			"min":[
				-1.1528345346450806,
				-0.041843414306640625,
				-0.05283445119857788
			],
			"type":"VEC3"
		},
		{
			"bufferView":5,
			"componentType":5126,
			"count":200,
			"type":"VEC3"
		},
		{
			"bufferView":6,
			"componentType":5126,
			"count":200,
			"type":"VEC2"
		},
		{
			"bufferView":7,
			"componentType":5123,
			"count":300,
			"type":"SCALAR"
		}
	],
	"bufferViews":[
		{
			"buffer":0,
			"byteLength":192,
			"byteOffset":0,
			"target":34962
		},
		{
			"buffer":0,
			"byteLength":192,
			"byteOffset":192,
			"target":34962
		},
		{
			"buffer":0,
			"byteLength":128,
			"byteOffset":384,
			"target":34962
		},
		{
			"buffer":0,
			"byteLength":72,
			"byteOffset":512,
			"target":34963
		},
		{
			"buffer":0,
			"byteLength":2400,
			"byteOffset":584,
			"target":34962
		},
		{
			"buffer":0,
			"byteLength":2400,
			"byteOffset":2984,
			"target":34962
		},
		{
			"buffer":0,
			"byteLength":1600,
			"byteOffset":5384,
			"target":34962
		},
		{
			"buffer":0,
			"byteLength":600,
			"byteOffset":6984,
			"target":34963
		}
	],
	"buffers":[
		{
			"byteLength":7584,
			"uri":"grid_fence_door.bin"
		}
	]
}
