{
	"asset":{
		"generator":"Khronos glTF Blender I/O v4.0.44",
		"version":"2.0"
	},
	"scene":0,
	"scenes":[
		{
			"name":"Scene",
			"nodes":[
				0
			]
		}
	],
	"nodes":[
		{
			"mesh":0,
			"name":"Lighthouse"
		}
	],
	"materials":[
		{
			"doubleSided":true,
			"name":"Placeholder1",
			"pbrMetallicRoughness":{
				"baseColorFactor":[
					0.7896374464035034,
					0.8000156879425049,
					0.39040327072143555,
					1
				],
				"metallicFactor":0,
				"roughnessFactor":0.5
			}
		},
		{
			"doubleSided":true,
			"name":"Placeholder2",
			"pbrMetallicRoughness":{
				"baseColorFactor":[
					0.23188084363937378,
					0.8000074625015259,
					0.3371920585632324,
					1
				],
				"metallicFactor":0,
				"roughnessFactor":0.5
			}
		},
		{
			"doubleSided":true,
			"name":"Placeholder3",
			"pbrMetallicRoughness":{
				"baseColorFactor":[
					0.8000074625015259,
					0.3487849533557892,
					0.5358224511146545,
					1
				],
				"metallicFactor":0,
				"roughnessFactor":0.5
			}
		},
		{
			"doubleSided":true,
			"name":"Placeholder4",
			"pbrMetallicRoughness":{
				"baseColorFactor":[
					0.1857464611530304,
					0.4343360662460327,
					0.8000074625015259,
					1
				],
				"metallicFactor":0,
				"roughnessFactor":0.5
			}
		}
	],
	"meshes":[
		{
			"name":"Circle.001",
			"primitives":[
				{
					"attributes":{
						"POSITION":0,
						"NORMAL":1,
						"TEXCOORD_0":2
					},
					"indices":3,
					"material":0
				},
				{
					"attributes":{
						"POSITION":4,
						"NORMAL":5,
						"TEXCOORD_0":6
					},
					"indices":7,
					"material":1
				},
				{
					"attributes":{
						"POSITION":8,
						"NORMAL":9,
						"TEXCOORD_0":10
					},
					"indices":11,
					"material":2
				},
				{
					"attributes":{
						"POSITION":12,
						"NORMAL":13,
						"TEXCOORD_0":14
					},
					"indices":15,
					"material":3
				}
			]
		}
	],
	"accessors":[
		{
			"bufferView":0,
			"componentType":5126,
			"count":130,
			"max":[
				3.9103996753692627,
				17.124448776245117,
				6.844180583953857
			],
			"min":[
				-3.9103996753692627,
				-0.10598373413085938,
				-4.141619682312012
			],
			"type":"VEC3"
		},
		{
			"bufferView":1,
			"componentType":5126,
			"count":130,
			"type":"VEC3"
		},
		{
			"bufferView":2,
			"componentType":5126,
			"count":130,
			"type":"VEC2"
		},
		{
			"bufferView":3,
			"componentType":5123,
			"count":204,
			"type":"SCALAR"
		},
		{
			"bufferView":4,
			"componentType":5126,
			"count":280,
			"max":[
				3.12831974029541,
				23.004297256469727,
				2.8971002101898193
			],
			"min":[
				-3.12831974029541,
				14.254234313964844,
				-3.359539270401001
			],
			"type":"VEC3"
		},
		{
			"bufferView":5,
			"componentType":5126,
			"count":280,
			"type":"VEC3"
		},
		{
			"bufferView":6,
			"componentType":5126,
			"count":280,
			"type":"VEC2"
		},
		{
			"bufferView":7,
			"componentType":5123,
			"count":408,
			"type":"SCALAR"
		},
		{
			"bufferView":8,
			"componentType":5126,
			"count":32,
			"max":[
				2.979944944381714,
				19.1334228515625,
				2.748725175857544
			],
			"min":[
				-2.979944944381714,
				17.550880432128906,
				-3.211164712905884
			],
			"type":"VEC3"
		},
		{
			"bufferView":9,
			"componentType":5126,
			"count":32,
			"type":"VEC3"
		},
		{
			"bufferView":10,
			"componentType":5126,
			"count":32,
			"type":"VEC2"
		},
		{
			"bufferView":11,
			"componentType":5123,
			"count":48,
			"type":"SCALAR"
		},
		{
			"bufferView":12,
			"componentType":5126,
			"count":36,
			"max":[
				3.448704957962036,
				7.126374244689941,
				9.000956535339355
			],
			"min":[
				-3.448704957962036,
				4.695438385009766,
				-0.01981183886528015
			],
			"type":"VEC3"
		},
		{
			"bufferView":13,
			"componentType":5126,
			"count":36,
			"type":"VEC3"
		},
		{
			"bufferView":14,
			"componentType":5126,
			"count":36,
			"type":"VEC2"
		},
		{
			"bufferView":15,
			"componentType":5123,
			"count":60,
			"type":"SCALAR"
		}
	],
	"bufferViews":[
		{
			"buffer":0,
			"byteLength":1560,
			"byteOffset":0,
			"target":34962
		},
		{
			"buffer":0,
			"byteLength":1560,
			"byteOffset":1560,
			"target":34962
		},
		{
			"buffer":0,
			"byteLength":1040,
			"byteOffset":3120,
			"target":34962
		},
		{
			"buffer":0,
			"byteLength":408,
			"byteOffset":4160,
			"target":34963
		},
		{
			"buffer":0,
			"byteLength":3360,
			"byteOffset":4568,
			"target":34962
		},
		{
			"buffer":0,
			"byteLength":3360,
			"byteOffset":7928,
			"target":34962
		},
		{
			"buffer":0,
			"byteLength":2240,
			"byteOffset":11288,
			"target":34962
		},
		{
			"buffer":0,
			"byteLength":816,
			"byteOffset":13528,
			"target":34963
		},
		{
			"buffer":0,
			"byteLength":384,
			"byteOffset":14344,
			"target":34962
		},
		{
			"buffer":0,
			"byteLength":384,
			"byteOffset":14728,
			"target":34962
		},
		{
			"buffer":0,
			"byteLength":256,
			"byteOffset":15112,
			"target":34962
		},
		{
			"buffer":0,
			"byteLength":96,
			"byteOffset":15368,
			"target":34963
		},
		{
			"buffer":0,
			"byteLength":432,
			"byteOffset":15464,
			"target":34962
		},
		{
			"buffer":0,
			"byteLength":432,
			"byteOffset":15896,
			"target":34962
		},
		{
			"buffer":0,
			"byteLength":288,
			"byteOffset":16328,
			"target":34962
		},
		{
			"buffer":0,
			"byteLength":120,
			"byteOffset":16616,
			"target":34963
		}
	],
	"buffers":[
		{
			"byteLength":16736,
			"uri":"lighthouse.bin"
		}
	]
}
