{
	"asset":{
		"generator":"Khronos glTF Blender I/O v4.0.44",
		"version":"2.0"
	},
	"scene":0,
	"scenes":[
		{
			"name":"Scene",
			"nodes":[
				0
			]
		}
	],
	"nodes":[
		{
			"mesh":0,
			"name":"Plane.006"
		}
	],
	"materials":[
		{
			"doubleSided":true,
			"name":"Placeholder1",
			"pbrMetallicRoughness":{
				"baseColorFactor":[
					0.7896374464035034,
					0.8000156879425049,
					0.39040327072143555,
					1
				],
				"metallicFactor":0,
				"roughnessFactor":0.5
			}
		},
		{
			"doubleSided":true,
			"name":"Placeholder2",
			"pbrMetallicRoughness":{
				"baseColorFactor":[
					0.23188084363937378,
					0.8000074625015259,
					0.3371920585632324,
					1
				],
				"metallicFactor":0,
				"roughnessFactor":0.5
			}
		},
		{
			"doubleSided":true,
			"name":"Placeholder3",
			"pbrMetallicRoughness":{
				"baseColorFactor":[
					0.8000074625015259,
					0.3487849533557892,
					0.5358224511146545,
					1
				],
				"metallicFactor":0,
				"roughnessFactor":0.5
			}
		}
	],
	"meshes":[
		{
			"name":"Plane.014",
			"primitives":[
				{
					"attributes":{
						"POSITION":0,
						"NORMAL":1,
						"TEXCOORD_0":2
					},
					"indices":3,
					"material":0
				},
				{
					"attributes":{
						"POSITION":4,
						"NORMAL":5,
						"TEXCOORD_0":6
					},
					"indices":7,
					"material":1
				},
				{
					"attributes":{
						"POSITION":8,
						"NORMAL":9,
						"TEXCOORD_0":10
					},
					"indices":11,
					"material":2
				}
			]
		}
	],
	"accessors":[
		{
			"bufferView":0,
			"componentType":5126,
			"count":121,
			"max":[
				0.7310657501220703,
				2.275373935699463,
				0.3151300847530365
			],
			"min":[
				-0.7310657501220703,
				-0.000582575798034668,
				-0.3151300847530365
			],
			"type":"VEC3"
		},
		{
			"bufferView":1,
			"componentType":5126,
			"count":121,
			"type":"VEC3"
		},
		{
			"bufferView":2,
			"componentType":5126,
			"count":121,
			"type":"VEC2"
		},
		{
			"bufferView":3,
			"componentType":5123,
			"count":216,
			"type":"SCALAR"
		},
		{
			"bufferView":4,
			"componentType":5126,
			"count":145,
			"max":[
				0.6933366060256958,
				3.0810723304748535,
				0.3151300847530365
			],
			"min":[
				-0.6933366060256958,
				-0.000582575798034668,
				-0.3151300847530365
			],
			"type":"VEC3"
		},
		{
			"bufferView":5,
			"componentType":5126,
			"count":145,
			"type":"VEC3"
		},
		{
			"bufferView":6,
			"componentType":5126,
			"count":145,
			"type":"VEC2"
		},
		{
			"bufferView":7,
			"componentType":5123,
			"count":246,
			"type":"SCALAR"
		},
		{
			"bufferView":8,
			"componentType":5126,
			"count":4,
			"max":[
				0.5523446202278137,
				1.9646637439727783,
				0.3151300847530365
			],
			"min":[
				-0.5523446202278137,
				1.2060110569000244,
				0.3151300847530365
			],
			"type":"VEC3"
		},
		{
			"bufferView":9,
			"componentType":5126,
			"count":4,
			"type":"VEC3"
		},
		{
			"bufferView":10,
			"componentType":5126,
			"count":4,
			"type":"VEC2"
		},
		{
			"bufferView":11,
			"componentType":5123,
			"count":6,
			"type":"SCALAR"
		}
	],
	"bufferViews":[
		{
			"buffer":0,
			"byteLength":1452,
			"byteOffset":0,
			"target":34962
		},
		{
			"buffer":0,
			"byteLength":1452,
			"byteOffset":1452,
			"target":34962
		},
		{
			"buffer":0,
			"byteLength":968,
			"byteOffset":2904,
			"target":34962
		},
		{
			"buffer":0,
			"byteLength":432,
			"byteOffset":3872,
			"target":34963
		},
		{
			"buffer":0,
			"byteLength":1740,
			"byteOffset":4304,
			"target":34962
		},
		{
			"buffer":0,
			"byteLength":1740,
			"byteOffset":6044,
			"target":34962
		},
		{
			"buffer":0,
			"byteLength":1160,
			"byteOffset":7784,
			"target":34962
		},
		{
			"buffer":0,
			"byteLength":492,
			"byteOffset":8944,
			"target":34963
		},
		{
			"buffer":0,
			"byteLength":48,
			"byteOffset":9436,
			"target":34962
		},
		{
			"buffer":0,
			"byteLength":48,
			"byteOffset":9484,
			"target":34962
		},
		{
			"buffer":0,
			"byteLength":32,
			"byteOffset":9532,
			"target":34962
		},
		{
			"buffer":0,
			"byteLength":12,
			"byteOffset":9564,
			"target":34963
		}
	],
	"buffers":[
		{
			"byteLength":9576,
			"uri":"petrol-station.bin"
		}
	]
}
