{
	"asset":{
		"generator":"Khronos glTF Blender I/O v4.0.44",
		"version":"2.0"
	},
	"scene":0,
	"scenes":[
		{
			"name":"Scene",
			"nodes":[
				0
			]
		}
	],
	"nodes":[
		{
			"mesh":0,
			"name":"StairsDesk",
			"rotation":[
				0.7071068286895752,
				0,
				0,
				0.7071068286895752
			]
		}
	],
	"materials":[
		{
			"doubleSided":true,
			"name":"Placeholder1",
			"pbrMetallicRoughness":{
				"baseColorFactor":[
					0.7896374464035034,
					0.8000156879425049,
					0.39040327072143555,
					1
				],
				"metallicFactor":0,
				"roughnessFactor":0.5
			}
		}
	],
	"meshes":[
		{
			"name":"Plane.011",
			"primitives":[
				{
					"attributes":{
						"POSITION":0,
						"NORMAL":1,
						"TEXCOORD_0":2
					},
					"indices":3,
					"material":0
				}
			]
		}
	],
	"accessors":[
		{
			"bufferView":0,
			"componentType":5126,
			"count":62,
			"max":[
				0.699999988079071,
				0,
				4.3711387287537207e-10
			],
			"min":[
				-0.699999988079071,
				-0.010000021196901798,
				-0.5
			],
			"type":"VEC3"
		},
		{
			"bufferView":1,
			"componentType":5126,
			"count":62,
			"type":"VEC3"
		},
		{
			"bufferView":2,
			"componentType":5126,
			"count":62,
			"type":"VEC2"
		},
		{
			"bufferView":3,
			"componentType":5123,
			"count":138,
			"type":"SCALAR"
		}
	],
	"bufferViews":[
		{
			"buffer":0,
			"byteLength":744,
			"byteOffset":0,
			"target":34962
		},
		{
			"buffer":0,
			"byteLength":744,
			"byteOffset":744,
			"target":34962
		},
		{
			"buffer":0,
			"byteLength":496,
			"byteOffset":1488,
			"target":34962
		},
		{
			"buffer":0,
			"byteLength":276,
			"byteOffset":1984,
			"target":34963
		}
	],
	"buffers":[
		{
			"byteLength":2260,
			"uri":"stairs_desk.bin"
		}
	]
}
