{
	"asset":{
		"generator":"Khronos glTF Blender I/O v4.0.44",
		"version":"2.0"
	},
	"scene":0,
	"scenes":[
		{
			"name":"Scene",
			"nodes":[
				0,
				1,
				2,
				3,
				4
			]
		}
	],
	"nodes":[
		{
			"mesh":0,
			"name":"Suzanne",
			"rotation":[
				0.12390797585248947,
				-0.7032392621040344,
				0.15999087691307068,
				0.6815455555915833
			],
			"translation":[
				-0.9646480083465576,
				3.2430317401885986,
				-0.10539598762989044
			]
		},
		{
			"mesh":1,
			"name":"Cylinder",
			"translation":[
				-0.46069419384002686,
				0.9632692337036133,
				0.006980227306485176
			]
		},
		{
			"mesh":2,
			"name":"Cylinder.001",
			"translation":[
				-0.46069419384002686,
				0.9632692337036133,
				0.006980227306485176
			]
		},
		{
			"mesh":3,
			"name":"Suzanne.001",
			"rotation":[
				0.12390797585248947,
				-0.7032392621040344,
				0.15999087691307068,
				0.6815455555915833
			],
			"translation":[
				-0.9646480083465576,
				3.2430317401885986,
				-0.10539598762989044
			]
		},
		{
			"mesh":4,
			"name":"Suzanne.002",
			"rotation":[
				0.12390797585248947,
				-0.7032392621040344,
				0.15999087691307068,
				0.6815455555915833
			],
			"translation":[
				-0.9646480083465576,
				3.2430317401885986,
				-0.10539598762989044
			]
		}
	],
	"materials":[
		{
			"doubleSided":true,
			"name":"Placeholder1",
			"pbrMetallicRoughness":{
				"baseColorFactor":[
					0.7896374464035034,
					0.8000156879425049,
					0.39040327072143555,
					1
				],
				"metallicFactor":0,
				"roughnessFactor":0.5
			}
		},
		{
			"doubleSided":true,
			"name":"Placeholder3",
			"pbrMetallicRoughness":{
				"baseColorFactor":[
					0.8000074625015259,
					0.3487849533557892,
					0.5358224511146545,
					1
				],
				"metallicFactor":0,
				"roughnessFactor":0.5
			}
		},
		{
			"doubleSided":true,
			"name":"Placeholder2",
			"pbrMetallicRoughness":{
				"baseColorFactor":[
					0.23188084363937378,
					0.8000074625015259,
					0.3371920585632324,
					1
				],
				"metallicFactor":0,
				"roughnessFactor":0.5
			}
		}
	],
	"meshes":[
		{
			"name":"Suzanne",
			"primitives":[
				{
					"attributes":{
						"POSITION":0,
						"NORMAL":1,
						"TEXCOORD_0":2
					},
					"indices":3,
					"material":0
				},
				{
					"attributes":{
						"POSITION":4,
						"NORMAL":5,
						"TEXCOORD_0":6
					},
					"indices":7,
					"material":1
				}
			]
		},
		{
			"name":"Cylinder.001",
			"primitives":[
				{
					"attributes":{
						"POSITION":8,
						"NORMAL":9,
						"TEXCOORD_0":10
					},
					"indices":11,
					"material":0
				}
			]
		},
		{
			"name":"Cylinder.002",
			"primitives":[
				{
					"attributes":{
						"POSITION":12,
						"NORMAL":13,
						"TEXCOORD_0":14
					},
					"indices":15,
					"material":0
				}
			]
		},
		{
			"name":"Suzanne.001",
			"primitives":[
				{
					"attributes":{
						"POSITION":16,
						"NORMAL":17,
						"TEXCOORD_0":18
					},
					"indices":19,
					"material":2
				},
				{
					"attributes":{
						"POSITION":20,
						"NORMAL":21,
						"TEXCOORD_0":22
					},
					"indices":23,
					"material":1
				}
			]
		},
		{
			"name":"Suzanne.002",
			"primitives":[
				{
					"attributes":{
						"POSITION":24,
						"NORMAL":25,
						"TEXCOORD_0":26
					},
					"indices":27,
					"material":2
				},
				{
					"attributes":{
						"POSITION":28,
						"NORMAL":29,
						"TEXCOORD_0":30
					},
					"indices":31,
					"material":1
				}
			]
		}
	],
	"accessors":[
		{
			"bufferView":0,
			"componentType":5126,
			"count":1682,
			"max":[
				1.1938245296478271,
				0.984375,
				0.9846791625022888
			],
			"min":[
				-1.1704624891281128,
				-1.596150279045105,
				-0.833711564540863
			],
			"type":"VEC3"
		},
		{
			"bufferView":1,
			"componentType":5126,
			"count":1682,
			"type":"VEC3"
		},
		{
			"bufferView":2,
			"componentType":5126,
			"count":1682,
			"type":"VEC2"
		},
		{
			"bufferView":3,
			"componentType":5123,
			"count":2502,
			"type":"SCALAR"
		},
		{
			"bufferView":4,
			"componentType":5126,
			"count":46,
			"max":[
				0.11637549102306366,
				-0.8367112874984741,
				0.9731075763702393
			],
			"min":[
				-0.1488829255104065,
				-1.3492228984832764,
				0.7481323480606079
			],
			"type":"VEC3"
		},
		{
			"bufferView":5,
			"componentType":5126,
			"count":46,
			"type":"VEC3"
		},
		{
			"bufferView":6,
			"componentType":5126,
			"count":46,
			"type":"VEC2"
		},
		{
			"bufferView":7,
			"componentType":5123,
			"count":66,
			"type":"SCALAR"
		},
		{
			"bufferView":8,
			"componentType":5126,
			"count":400,
			"max":[
				1.311371922492981,
				2.3090267181396484,
				0.8921565413475037
			],
			"min":[
				-0.47957783937454224,
				-0.3367210030555725,
				-0.8921563625335693
			],
			"type":"VEC3"
		},
		{
			"bufferView":9,
			"componentType":5126,
			"count":400,
			"type":"VEC3"
		},
		{
			"bufferView":10,
			"componentType":5126,
			"count":400,
			"type":"VEC2"
		},
		{
			"bufferView":11,
			"componentType":5123,
			"count":618,
			"type":"SCALAR"
		},
		{
			"bufferView":12,
			"componentType":5126,
			"count":128,
			"max":[
				1.434876799583435,
				-0.299906849861145,
				1.0176409482955933
			],
			"min":[
				-0.5735729932785034,
				-1.0318666696548462,
				-1.0176411867141724
			],
			"type":"VEC3"
		},
		{
			"bufferView":13,
			"componentType":5126,
			"count":128,
			"type":"VEC3"
		},
		{
			"bufferView":14,
			"componentType":5126,
			"count":128,
			"type":"VEC2"
		},
		{
			"bufferView":15,
			"componentType":5123,
			"count":192,
			"type":"SCALAR"
		},
		{
			"bufferView":16,
			"componentType":5126,
			"count":136,
			"max":[
				0.6906688213348389,
				0.581339418888092,
				1.0256980657577515
			],
			"min":[
				0.08340954035520554,
				0.14488571882247925,
				0.06452567875385284
			],
			"type":"VEC3"
		},
		{
			"bufferView":17,
			"componentType":5126,
			"count":136,
			"type":"VEC3"
		},
		{
			"bufferView":18,
			"componentType":5126,
			"count":136,
			"type":"VEC2"
		},
		{
			"bufferView":19,
			"componentType":5123,
			"count":192,
			"type":"SCALAR"
		},
		{
			"bufferView":20,
			"componentType":5126,
			"count":8,
			"max":[
				0.4709028899669647,
				0.5788191556930542,
				1.0256980657577515
			],
			"min":[
				0.27103787660598755,
				0.42394471168518066,
				0.900873601436615
			],
			"type":"VEC3"
		},
		{
			"bufferView":21,
			"componentType":5126,
			"count":8,
			"type":"VEC3"
		},
		{
			"bufferView":22,
			"componentType":5126,
			"count":8,
			"type":"VEC2"
		},
		{
			"bufferView":23,
			"componentType":5123,
			"count":12,
			"type":"SCALAR"
		},
		{
			"bufferView":24,
			"componentType":5126,
			"count":136,
			"max":[
				-0.0824851468205452,
				0.5840551853179932,
				1.0177385807037354
			],
			"min":[
				-0.6971523761749268,
				0.12047594785690308,
				0.028551682829856873
			],
			"type":"VEC3"
		},
		{
			"bufferView":25,
			"componentType":5126,
			"count":136,
			"type":"VEC3"
		},
		{
			"bufferView":26,
			"componentType":5126,
			"count":136,
			"type":"VEC2"
		},
		{
			"bufferView":27,
			"componentType":5123,
			"count":192,
			"type":"SCALAR"
		},
		{
			"bufferView":28,
			"componentType":5126,
			"count":8,
			"max":[
				-0.23948313295841217,
				0.5823408365249634,
				1.0177385807037354
			],
			"min":[
				-0.44453898072242737,
				0.4299214780330658,
				0.8918344974517822
			],
			"type":"VEC3"
		},
		{
			"bufferView":29,
			"componentType":5126,
			"count":8,
			"type":"VEC3"
		},
		{
			"bufferView":30,
			"componentType":5126,
			"count":8,
			"type":"VEC2"
		},
		{
			"bufferView":31,
			"componentType":5123,
			"count":12,
			"type":"SCALAR"
		}
	],
	"bufferViews":[
		{
			"buffer":0,
			"byteLength":20184,
			"byteOffset":0,
			"target":34962
		},
		{
			"buffer":0,
			"byteLength":20184,
			"byteOffset":20184,
			"target":34962
		},
		{
			"buffer":0,
			"byteLength":13456,
			"byteOffset":40368,
			"target":34962
		},
		{
			"buffer":0,
			"byteLength":5004,
			"byteOffset":53824,
			"target":34963
		},
		{
			"buffer":0,
			"byteLength":552,
			"byteOffset":58828,
			"target":34962
		},
		{
			"buffer":0,
			"byteLength":552,
			"byteOffset":59380,
			"target":34962
		},
		{
			"buffer":0,
			"byteLength":368,
			"byteOffset":59932,
			"target":34962
		},
		{
			"buffer":0,
			"byteLength":132,
			"byteOffset":60300,
			"target":34963
		},
		{
			"buffer":0,
			"byteLength":4800,
			"byteOffset":60432,
			"target":34962
		},
		{
			"buffer":0,
			"byteLength":4800,
			"byteOffset":65232,
			"target":34962
		},
		{
			"buffer":0,
			"byteLength":3200,
			"byteOffset":70032,
			"target":34962
		},
		{
			"buffer":0,
			"byteLength":1236,
			"byteOffset":73232,
			"target":34963
		},
		{
			"buffer":0,
			"byteLength":1536,
			"byteOffset":74468,
			"target":34962
		},
		{
			"buffer":0,
			"byteLength":1536,
			"byteOffset":76004,
			"target":34962
		},
		{
			"buffer":0,
			"byteLength":1024,
			"byteOffset":77540,
			"target":34962
		},
		{
			"buffer":0,
			"byteLength":384,
			"byteOffset":78564,
			"target":34963
		},
		{
			"buffer":0,
			"byteLength":1632,
			"byteOffset":78948,
			"target":34962
		},
		{
			"buffer":0,
			"byteLength":1632,
			"byteOffset":80580,
			"target":34962
		},
		{
			"buffer":0,
			"byteLength":1088,
			"byteOffset":82212,
			"target":34962
		},
		{
			"buffer":0,
			"byteLength":384,
			"byteOffset":83300,
			"target":34963
		},
		{
			"buffer":0,
			"byteLength":96,
			"byteOffset":83684,
			"target":34962
		},
		{
			"buffer":0,
			"byteLength":96,
			"byteOffset":83780,
			"target":34962
		},
		{
			"buffer":0,
			"byteLength":64,
			"byteOffset":83876,
			"target":34962
		},
		{
			"buffer":0,
			"byteLength":24,
			"byteOffset":83940,
			"target":34963
		},
		{
			"buffer":0,
			"byteLength":1632,
			"byteOffset":83964,
			"target":34962
		},
		{
			"buffer":0,
			"byteLength":1632,
			"byteOffset":85596,
			"target":34962
		},
		{
			"buffer":0,
			"byteLength":1088,
			"byteOffset":87228,
			"target":34962
		},
		{
			"buffer":0,
			"byteLength":384,
			"byteOffset":88316,
			"target":34963
		},
		{
			"buffer":0,
			"byteLength":96,
			"byteOffset":88700,
			"target":34962
		},
		{
			"buffer":0,
			"byteLength":96,
			"byteOffset":88796,
			"target":34962
		},
		{
			"buffer":0,
			"byteLength":64,
			"byteOffset":88892,
			"target":34962
		},
		{
			"buffer":0,
			"byteLength":24,
			"byteOffset":88956,
			"target":34963
		}
	],
	"buffers":[
		{
			"byteLength":88980,
			"uri":"boss.bin"
		}
	]
}
