{
	"asset":{
		"generator":"Khronos glTF Blender I/O v4.0.44",
		"version":"2.0"
	},
	"extensionsUsed":[
		"KHR_materials_unlit"
	],
	"scene":0,
	"scenes":[
		{
			"name":"Scene",
			"nodes":[
				0
			]
		}
	],
	"nodes":[
		{
			"mesh":0,
			"name":"Sphere",
			"rotation":[
				0,
				0,
				-0.7071068286895752,
				0.7071068286895752
			]
		}
	],
	"materials":[
		{
			"doubleSided":true,
			"extensions":{
				"KHR_materials_unlit":{}
			},
			"name":"Beholder.Body",
			"pbrMetallicRoughness":{
				"metallicFactor":0,
				"roughnessFactor":0.9
			}
		},
		{
			"doubleSided":true,
			"extensions":{
				"KHR_materials_unlit":{}
			},
			"name":"Beholder.Eye",
			"pbrMetallicRoughness":{
				"metallicFactor":0,
				"roughnessFactor":0.9
			}
		},
		{
			"doubleSided":true,
			"extensions":{
				"KHR_materials_unlit":{}
			},
			"name":"Beholder.Pupil",
			"pbrMetallicRoughness":{
				"metallicFactor":0,
				"roughnessFactor":0.9
			}
		}
	],
	"meshes":[
		{
			"name":"Sphere.001",
			"primitives":[
				{
					"attributes":{
						"POSITION":0,
						"NORMAL":1,
						"TEXCOORD_0":2
					},
					"indices":3,
					"material":0
				},
				{
					"attributes":{
						"POSITION":4,
						"NORMAL":5,
						"TEXCOORD_0":6
					},
					"indices":7,
					"material":1
				},
				{
					"attributes":{
						"POSITION":8,
						"NORMAL":9,
						"TEXCOORD_0":10
					},
					"indices":11,
					"material":2
				}
			]
		}
	],
	"accessors":[
		{
			"bufferView":0,
			"componentType":5126,
			"count":992,
			"max":[
				1.0614540576934814,
				1.113224744796753,
				1.366422176361084
			],
			"min":[
				-1.1702308654785156,
				-0.7520852088928223,
				-1.3664225339889526
			],
			"type":"VEC3"
		},
		{
			"bufferView":1,
			"componentType":5126,
			"count":992,
			"type":"VEC3"
		},
		{
			"bufferView":2,
			"componentType":5126,
			"count":992,
			"type":"VEC2"
		},
		{
			"bufferView":3,
			"componentType":5123,
			"count":1464,
			"type":"SCALAR"
		},
		{
			"bufferView":4,
			"componentType":5126,
			"count":176,
			"max":[
				1.2614984512329102,
				0.8075211644172668,
				1.7328442335128784
			],
			"min":[
				-0.5758386850357056,
				-0.7578063011169434,
				-1.7328450679779053
			],
			"type":"VEC3"
		},
		{
			"bufferView":5,
			"componentType":5126,
			"count":176,
			"type":"VEC3"
		},
		{
			"bufferView":6,
			"componentType":5126,
			"count":176,
			"type":"VEC2"
		},
		{
			"bufferView":7,
			"componentType":5123,
			"count":264,
			"type":"SCALAR"
		},
		{
			"bufferView":8,
			"componentType":5126,
			"count":160,
			"max":[
				1.2614984512329102,
				0.8075211644172668,
				1.7328442335128784
			],
			"min":[
				-0.5758386850357056,
				-0.7885727286338806,
				-1.7328450679779053
			],
			"type":"VEC3"
		},
		{
			"bufferView":9,
			"componentType":5126,
			"count":160,
			"type":"VEC3"
		},
		{
			"bufferView":10,
			"componentType":5126,
			"count":160,
			"type":"VEC2"
		},
		{
			"bufferView":11,
			"componentType":5123,
			"count":216,
			"type":"SCALAR"
		}
	],
	"bufferViews":[
		{
			"buffer":0,
			"byteLength":11904,
			"byteOffset":0,
			"target":34962
		},
		{
			"buffer":0,
			"byteLength":11904,
			"byteOffset":11904,
			"target":34962
		},
		{
			"buffer":0,
			"byteLength":7936,
			"byteOffset":23808,
			"target":34962
		},
		{
			"buffer":0,
			"byteLength":2928,
			"byteOffset":31744,
			"target":34963
		},
		{
			"buffer":0,
			"byteLength":2112,
			"byteOffset":34672,
			"target":34962
		},
		{
			"buffer":0,
			"byteLength":2112,
			"byteOffset":36784,
			"target":34962
		},
		{
			"buffer":0,
			"byteLength":1408,
			"byteOffset":38896,
			"target":34962
		},
		{
			"buffer":0,
			"byteLength":528,
			"byteOffset":40304,
			"target":34963
		},
		{
			"buffer":0,
			"byteLength":1920,
			"byteOffset":40832,
			"target":34962
		},
		{
			"buffer":0,
			"byteLength":1920,
			"byteOffset":42752,
			"target":34962
		},
		{
			"buffer":0,
			"byteLength":1280,
			"byteOffset":44672,
			"target":34962
		},
		{
			"buffer":0,
			"byteLength":432,
			"byteOffset":45952,
			"target":34963
		}
	],
	"buffers":[
		{
			"byteLength":46384,
			"uri":"beholder.bin"
		}
	]
}
