{
	"asset":{
		"generator":"Khronos glTF Blender I/O v4.0.44",
		"version":"2.0"
	},
	"scene":0,
	"scenes":[
		{
			"name":"Scene",
			"nodes":[
				0,
				1,
				2
			]
		}
	],
	"nodes":[
		{
			"mesh":0,
			"name":"Plane.007"
		},
		{
			"mesh":1,
			"name":"Plane.008"
		},
		{
			"mesh":2,
			"name":"Plane.009"
		}
	],
	"animations":[
		{
			"channels":[
				{
					"sampler":0,
					"target":{
						"node":0,
						"path":"translation"
					}
				},
				{
					"sampler":1,
					"target":{
						"node":0,
						"path":"rotation"
					}
				},
				{
					"sampler":2,
					"target":{
						"node":0,
						"path":"scale"
					}
				},
				{
					"sampler":3,
					"target":{
						"node":1,
						"path":"translation"
					}
				},
				{
					"sampler":4,
					"target":{
						"node":1,
						"path":"rotation"
					}
				},
				{
					"sampler":5,
					"target":{
						"node":1,
						"path":"scale"
					}
				},
				{
					"sampler":6,
					"target":{
						"node":2,
						"path":"translation"
					}
				},
				{
					"sampler":7,
					"target":{
						"node":2,
						"path":"rotation"
					}
				},
				{
					"sampler":8,
					"target":{
						"node":2,
						"path":"scale"
					}
				}
			],
			"name":"Walk",
			"samplers":[
				{
					"input":24,
					"interpolation":"LINEAR",
					"output":25
				},
				{
					"input":24,
					"interpolation":"LINEAR",
					"output":26
				},
				{
					"input":27,
					"interpolation":"STEP",
					"output":28
				},
				{
					"input":24,
					"interpolation":"LINEAR",
					"output":29
				},
				{
					"input":24,
					"interpolation":"LINEAR",
					"output":30
				},
				{
					"input":27,
					"interpolation":"STEP",
					"output":31
				},
				{
					"input":24,
					"interpolation":"LINEAR",
					"output":32
				},
				{
					"input":24,
					"interpolation":"LINEAR",
					"output":33
				},
				{
					"input":27,
					"interpolation":"STEP",
					"output":34
				}
			]
		}
	],
	"materials":[
		{
			"doubleSided":true,
			"name":"Placeholder1",
			"pbrMetallicRoughness":{
				"baseColorFactor":[
					0.7896374464035034,
					0.8000156879425049,
					0.39040327072143555,
					1
				],
				"metallicFactor":0,
				"roughnessFactor":0.5
			}
		},
		{
			"doubleSided":true,
			"name":"Placeholder2",
			"pbrMetallicRoughness":{
				"baseColorFactor":[
					0.23188084363937378,
					0.8000074625015259,
					0.3371920585632324,
					1
				],
				"metallicFactor":0,
				"roughnessFactor":0.5
			}
		},
		{
			"doubleSided":true,
			"name":"Placeholder3",
			"pbrMetallicRoughness":{
				"baseColorFactor":[
					0.8000074625015259,
					0.3487849533557892,
					0.5358224511146545,
					1
				],
				"metallicFactor":0,
				"roughnessFactor":0.5
			}
		},
		{
			"doubleSided":true,
			"name":"Placeholder4",
			"pbrMetallicRoughness":{
				"baseColorFactor":[
					0.1857464611530304,
					0.4343360662460327,
					0.8000074625015259,
					1
				],
				"metallicFactor":0,
				"roughnessFactor":0.5
			}
		}
	],
	"meshes":[
		{
			"name":"Plane.026",
			"primitives":[
				{
					"attributes":{
						"POSITION":0,
						"NORMAL":1,
						"TEXCOORD_0":2
					},
					"indices":3,
					"material":0
				},
				{
					"attributes":{
						"POSITION":4,
						"NORMAL":5,
						"TEXCOORD_0":6
					},
					"indices":7,
					"material":1
				},
				{
					"attributes":{
						"POSITION":8,
						"NORMAL":9,
						"TEXCOORD_0":10
					},
					"indices":11,
					"material":2
				}
			]
		},
		{
			"name":"Plane.027",
			"primitives":[
				{
					"attributes":{
						"POSITION":12,
						"NORMAL":13,
						"TEXCOORD_0":14
					},
					"indices":15,
					"material":3
				}
			]
		},
		{
			"name":"Plane.028",
			"primitives":[
				{
					"attributes":{
						"POSITION":16,
						"NORMAL":17,
						"TEXCOORD_0":18
					},
					"indices":19,
					"material":0
				},
				{
					"attributes":{
						"POSITION":20,
						"NORMAL":21,
						"TEXCOORD_0":22
					},
					"indices":23,
					"material":1
				}
			]
		}
	],
	"accessors":[
		{
			"bufferView":0,
			"componentType":5126,
			"count":292,
			"max":[
				0.17976787686347961,
				1.339329481124878,
				0.5654544830322266
			],
			"min":[
				-0.4813421666622162,
				0.18667563796043396,
				-0.5654544830322266
			],
			"type":"VEC3"
		},
		{
			"bufferView":1,
			"componentType":5126,
			"count":292,
			"type":"VEC3"
		},
		{
			"bufferView":2,
			"componentType":5126,
			"count":292,
			"type":"VEC2"
		},
		{
			"bufferView":3,
			"componentType":5123,
			"count":558,
			"type":"SCALAR"
		},
		{
			"bufferView":4,
			"componentType":5126,
			"count":28,
			"max":[
				-0.33115002512931824,
				0.7958510518074036,
				0.23408390581607819
			],
			"min":[
				-0.33115002512931824,
				0.6827878952026367,
				-0.23408390581607819
			],
			"type":"VEC3"
		},
		{
			"bufferView":5,
			"componentType":5126,
			"count":28,
			"type":"VEC3"
		},
		{
			"bufferView":6,
			"componentType":5126,
			"count":28,
			"type":"VEC2"
		},
		{
			"bufferView":7,
			"componentType":5123,
			"count":72,
			"type":"SCALAR"
		},
		{
			"bufferView":8,
			"componentType":5126,
			"count":16,
			"max":[
				-0.24182246625423431,
				1.2465927600860596,
				0.47271767258644104
			],
			"min":[
				-0.2418224960565567,
				1.0483283996582031,
				-0.47271767258644104
			],
			"type":"VEC3"
		},
		{
			"bufferView":9,
			"componentType":5126,
			"count":16,
			"type":"VEC3"
		},
		{
			"bufferView":10,
			"componentType":5126,
			"count":16,
			"type":"VEC2"
		},
		{
			"bufferView":11,
			"componentType":5123,
			"count":36,
			"type":"SCALAR"
		},
		{
			"bufferView":12,
			"componentType":5126,
			"count":252,
			"max":[
				0.3764585852622986,
				0.23067811131477356,
				0.5095835328102112
			],
			"min":[
				-0.6764585971832275,
				0,
				-0.5095835328102112
			],
			"type":"VEC3"
		},
		{
			"bufferView":13,
			"componentType":5126,
			"count":252,
			"type":"VEC3"
		},
		{
			"bufferView":14,
			"componentType":5126,
			"count":252,
			"type":"VEC2"
		},
		{
			"bufferView":15,
			"componentType":5123,
			"count":564,
			"type":"SCALAR"
		},
		{
			"bufferView":16,
			"componentType":5126,
			"count":68,
			"max":[
				-0.0779644250869751,
				0.7562944889068604,
				0.2427859902381897
			],
			"min":[
				-0.3648083508014679,
				0.2612554728984833,
				-0.2427859902381897
			],
			"type":"VEC3"
		},
		{
			"bufferView":17,
			"componentType":5126,
			"count":68,
			"type":"VEC3"
		},
		{
			"bufferView":18,
			"componentType":5126,
			"count":68,
			"type":"VEC2"
		},
		{
			"bufferView":19,
			"componentType":5123,
			"count":102,
			"type":"SCALAR"
		},
		{
			"bufferView":20,
			"componentType":5126,
			"count":26,
			"max":[
				-0.33115002512931824,
				0.5379401445388794,
				0.22027339041233063
			],
			"min":[
				-0.33115002512931824,
				0.3255239427089691,
				-0.22027339041233063
			],
			"type":"VEC3"
		},
		{
			"bufferView":21,
			"componentType":5126,
			"count":26,
			"type":"VEC3"
		},
		{
			"bufferView":22,
			"componentType":5126,
			"count":26,
			"type":"VEC2"
		},
		{
			"bufferView":23,
			"componentType":5123,
			"count":72,
			"type":"SCALAR"
		},
		{
			"bufferView":24,
			"componentType":5126,
			"count":25,
			"max":[
				0.4
			],
			"min":[
				0
			],
			"type":"SCALAR"
		},
		{
			"bufferView":25,
			"componentType":5126,
			"count":25,
			"type":"VEC3"
		},
		{
			"bufferView":26,
			"componentType":5126,
			"count":25,
			"type":"VEC4"
		},
		{
			"bufferView":27,
			"componentType":5126,
			"count":2,
			"max":[
				0.4
			],
			"min":[
				0
			],
			"type":"SCALAR"
		},
		{
			"bufferView":28,
			"componentType":5126,
			"count":2,
			"type":"VEC3"
		},
		{
			"bufferView":29,
			"componentType":5126,
			"count":25,
			"type":"VEC3"
		},
		{
			"bufferView":30,
			"componentType":5126,
			"count":25,
			"type":"VEC4"
		},
		{
			"bufferView":31,
			"componentType":5126,
			"count":2,
			"type":"VEC3"
		},
		{
			"bufferView":32,
			"componentType":5126,
			"count":25,
			"type":"VEC3"
		},
		{
			"bufferView":33,
			"componentType":5126,
			"count":25,
			"type":"VEC4"
		},
		{
			"bufferView":34,
			"componentType":5126,
			"count":2,
			"type":"VEC3"
		}
	],
	"bufferViews":[
		{
			"buffer":0,
			"byteLength":3504,
			"byteOffset":0,
			"target":34962
		},
		{
			"buffer":0,
			"byteLength":3504,
			"byteOffset":3504,
			"target":34962
		},
		{
			"buffer":0,
			"byteLength":2336,
			"byteOffset":7008,
			"target":34962
		},
		{
			"buffer":0,
			"byteLength":1116,
			"byteOffset":9344,
			"target":34963
		},
		{
			"buffer":0,
			"byteLength":336,
			"byteOffset":10460,
			"target":34962
		},
		{
			"buffer":0,
			"byteLength":336,
			"byteOffset":10796,
			"target":34962
		},
		{
			"buffer":0,
			"byteLength":224,
			"byteOffset":11132,
			"target":34962
		},
		{
			"buffer":0,
			"byteLength":144,
			"byteOffset":11356,
			"target":34963
		},
		{
			"buffer":0,
			"byteLength":192,
			"byteOffset":11500,
			"target":34962
		},
		{
			"buffer":0,
			"byteLength":192,
			"byteOffset":11692,
			"target":34962
		},
		{
			"buffer":0,
			"byteLength":128,
			"byteOffset":11884,
			"target":34962
		},
		{
			"buffer":0,
			"byteLength":72,
			"byteOffset":12012,
			"target":34963
		},
		{
			"buffer":0,
			"byteLength":3024,
			"byteOffset":12084,
			"target":34962
		},
		{
			"buffer":0,
			"byteLength":3024,
			"byteOffset":15108,
			"target":34962
		},
		{
			"buffer":0,
			"byteLength":2016,
			"byteOffset":18132,
			"target":34962
		},
		{
			"buffer":0,
			"byteLength":1128,
			"byteOffset":20148,
			"target":34963
		},
		{
			"buffer":0,
			"byteLength":816,
			"byteOffset":21276,
			"target":34962
		},
		{
			"buffer":0,
			"byteLength":816,
			"byteOffset":22092,
			"target":34962
		},
		{
			"buffer":0,
			"byteLength":544,
			"byteOffset":22908,
			"target":34962
		},
		{
			"buffer":0,
			"byteLength":204,
			"byteOffset":23452,
			"target":34963
		},
		{
			"buffer":0,
			"byteLength":312,
			"byteOffset":23656,
			"target":34962
		},
		{
			"buffer":0,
			"byteLength":312,
			"byteOffset":23968,
			"target":34962
		},
		{
			"buffer":0,
			"byteLength":208,
			"byteOffset":24280,
			"target":34962
		},
		{
			"buffer":0,
			"byteLength":144,
			"byteOffset":24488,
			"target":34963
		},
		{
			"buffer":0,
			"byteLength":100,
			"byteOffset":24632
		},
		{
			"buffer":0,
			"byteLength":300,
			"byteOffset":24732
		},
		{
			"buffer":0,
			"byteLength":400,
			"byteOffset":25032
		},
		{
			"buffer":0,
			"byteLength":8,
			"byteOffset":25432
		},
		{
			"buffer":0,
			"byteLength":24,
			"byteOffset":25440
		},
		{
			"buffer":0,
			"byteLength":300,
			"byteOffset":25464
		},
		{
			"buffer":0,
			"byteLength":400,
			"byteOffset":25764
		},
		{
			"buffer":0,
			"byteLength":24,
			"byteOffset":26164
		},
		{
			"buffer":0,
			"byteLength":300,
			"byteOffset":26188
		},
		{
			"buffer":0,
			"byteLength":400,
			"byteOffset":26488
		},
		{
			"buffer":0,
			"byteLength":24,
			"byteOffset":26888
		}
	],
	"buffers":[
		{
			"byteLength":26912,
			"uri":"jumper.bin"
		}
	]
}
