{
	"asset":{
		"generator":"Khronos glTF Blender I/O v4.0.44",
		"version":"2.0"
	},
	"scene":0,
	"scenes":[
		{
			"name":"Scene",
			"nodes":[
				0
			]
		}
	],
	"nodes":[
		{
			"mesh":0,
			"name":"Sphere.001",
			"scale":[
				0.11707095801830292,
				0.11707095801830292,
				0.11707095801830292
			]
		}
	],
	"animations":[
		{
			"channels":[
				{
					"sampler":0,
					"target":{
						"node":0,
						"path":"translation"
					}
				},
				{
					"sampler":1,
					"target":{
						"node":0,
						"path":"rotation"
					}
				},
				{
					"sampler":2,
					"target":{
						"node":0,
						"path":"scale"
					}
				}
			],
			"name":"Walk",
			"samplers":[
				{
					"input":16,
					"interpolation":"STEP",
					"output":17
				},
				{
					"input":18,
					"interpolation":"LINEAR",
					"output":19
				},
				{
					"input":16,
					"interpolation":"STEP",
					"output":20
				}
			]
		}
	],
	"materials":[
		{
			"doubleSided":true,
			"name":"Placeholder1",
			"pbrMetallicRoughness":{
				"baseColorFactor":[
					0.7896374464035034,
					0.8000156879425049,
					0.39040327072143555,
					1
				],
				"metallicFactor":0,
				"roughnessFactor":0.5
			}
		},
		{
			"doubleSided":true,
			"name":"Placeholder2",
			"pbrMetallicRoughness":{
				"baseColorFactor":[
					0.23188084363937378,
					0.8000074625015259,
					0.3371920585632324,
					1
				],
				"metallicFactor":0,
				"roughnessFactor":0.5
			}
		},
		{
			"doubleSided":true,
			"name":"Placeholder3",
			"pbrMetallicRoughness":{
				"baseColorFactor":[
					0.8000074625015259,
					0.3487849533557892,
					0.5358224511146545,
					1
				],
				"metallicFactor":0,
				"roughnessFactor":0.5
			}
		},
		{
			"doubleSided":true,
			"name":"Placeholder4",
			"pbrMetallicRoughness":{
				"baseColorFactor":[
					0.1857464611530304,
					0.4343360662460327,
					0.8000074625015259,
					1
				],
				"metallicFactor":0,
				"roughnessFactor":0.5
			}
		}
	],
	"meshes":[
		{
			"name":"Sphere.002",
			"primitives":[
				{
					"attributes":{
						"POSITION":0,
						"NORMAL":1,
						"TEXCOORD_0":2
					},
					"indices":3,
					"material":0
				},
				{
					"attributes":{
						"POSITION":4,
						"NORMAL":5,
						"TEXCOORD_0":6
					},
					"indices":7,
					"material":1
				},
				{
					"attributes":{
						"POSITION":8,
						"NORMAL":9,
						"TEXCOORD_0":10
					},
					"indices":11,
					"material":2
				},
				{
					"attributes":{
						"POSITION":12,
						"NORMAL":13,
						"TEXCOORD_0":14
					},
					"indices":15,
					"material":3
				}
			]
		}
	],
	"accessors":[
		{
			"bufferView":0,
			"componentType":5126,
			"count":280,
			"max":[
				10.568215370178223,
				3.788926124572754,
				4.955459117889404
			],
			"min":[
				1.0762877464294434,
				-0.9474400281906128,
				-5.701828479766846
			],
			"type":"VEC3"
		},
		{
			"bufferView":1,
			"componentType":5126,
			"count":280,
			"type":"VEC3"
		},
		{
			"bufferView":2,
			"componentType":5126,
			"count":280,
			"type":"VEC2"
		},
		{
			"bufferView":3,
			"componentType":5123,
			"count":480,
			"type":"SCALAR"
		},
		{
			"bufferView":4,
			"componentType":5126,
			"count":1120,
			"max":[
				7.762073516845703,
				1,
				4.654791831970215
			],
			"min":[
				-1.7631161212921143,
				-3.2300899028778076,
				-3.8821065425872803
			],
			"type":"VEC3"
		},
		{
			"bufferView":5,
			"componentType":5126,
			"count":1120,
			"type":"VEC3"
		},
		{
			"bufferView":6,
			"componentType":5126,
			"count":1120,
			"type":"VEC2"
		},
		{
			"bufferView":7,
			"componentType":5123,
			"count":1500,
			"type":"SCALAR"
		},
		{
			"bufferView":8,
			"componentType":5126,
			"count":128,
			"max":[
				8.283926963806152,
				3.788926124572754,
				5.204402446746826
			],
			"min":[
				1.0762877464294434,
				-0.2556506395339966,
				-5.904150009155273
			],
			"type":"VEC3"
		},
		{
			"bufferView":9,
			"componentType":5126,
			"count":128,
			"type":"VEC3"
		},
		{
			"bufferView":10,
			"componentType":5126,
			"count":128,
			"type":"VEC2"
		},
		{
			"bufferView":11,
			"componentType":5123,
			"count":198,
			"type":"SCALAR"
		},
		{
			"bufferView":12,
			"componentType":5126,
			"count":8,
			"max":[
				8.283926963806152,
				3.487095355987549,
				1.264969825744629
			],
			"min":[
				8.283926963806152,
				0.9571552276611328,
				-1.264969825744629
			],
			"type":"VEC3"
		},
		{
			"bufferView":13,
			"componentType":5126,
			"count":8,
			"type":"VEC3"
		},
		{
			"bufferView":14,
			"componentType":5126,
			"count":8,
			"type":"VEC2"
		},
		{
			"bufferView":15,
			"componentType":5123,
			"count":18,
			"type":"SCALAR"
		},
		{
			"bufferView":16,
			"componentType":5126,
			"count":2,
			"max":[
				0.4
			],
			"min":[
				0
			],
			"type":"SCALAR"
		},
		{
			"bufferView":17,
			"componentType":5126,
			"count":2,
			"type":"VEC3"
		},
		{
			"bufferView":18,
			"componentType":5126,
			"count":25,
			"max":[
				0.4
			],
			"min":[
				0
			],
			"type":"SCALAR"
		},
		{
			"bufferView":19,
			"componentType":5126,
			"count":25,
			"type":"VEC4"
		},
		{
			"bufferView":20,
			"componentType":5126,
			"count":2,
			"type":"VEC3"
		}
	],
	"bufferViews":[
		{
			"buffer":0,
			"byteLength":3360,
			"byteOffset":0,
			"target":34962
		},
		{
			"buffer":0,
			"byteLength":3360,
			"byteOffset":3360,
			"target":34962
		},
		{
			"buffer":0,
			"byteLength":2240,
			"byteOffset":6720,
			"target":34962
		},
		{
			"buffer":0,
			"byteLength":960,
			"byteOffset":8960,
			"target":34963
		},
		{
			"buffer":0,
			"byteLength":13440,
			"byteOffset":9920,
			"target":34962
		},
		{
			"buffer":0,
			"byteLength":13440,
			"byteOffset":23360,
			"target":34962
		},
		{
			"buffer":0,
			"byteLength":8960,
			"byteOffset":36800,
			"target":34962
		},
		{
			"buffer":0,
			"byteLength":3000,
			"byteOffset":45760,
			"target":34963
		},
		{
			"buffer":0,
			"byteLength":1536,
			"byteOffset":48760,
			"target":34962
		},
		{
			"buffer":0,
			"byteLength":1536,
			"byteOffset":50296,
			"target":34962
		},
		{
			"buffer":0,
			"byteLength":1024,
			"byteOffset":51832,
			"target":34962
		},
		{
			"buffer":0,
			"byteLength":396,
			"byteOffset":52856,
			"target":34963
		},
		{
			"buffer":0,
			"byteLength":96,
			"byteOffset":53252,
			"target":34962
		},
		{
			"buffer":0,
			"byteLength":96,
			"byteOffset":53348,
			"target":34962
		},
		{
			"buffer":0,
			"byteLength":64,
			"byteOffset":53444,
			"target":34962
		},
		{
			"buffer":0,
			"byteLength":36,
			"byteOffset":53508,
			"target":34963
		},
		{
			"buffer":0,
			"byteLength":8,
			"byteOffset":53544
		},
		{
			"buffer":0,
			"byteLength":24,
			"byteOffset":53552
		},
		{
			"buffer":0,
			"byteLength":100,
			"byteOffset":53576
		},
		{
			"buffer":0,
			"byteLength":400,
			"byteOffset":53676
		},
		{
			"buffer":0,
			"byteLength":24,
			"byteOffset":54076
		}
	],
	"buffers":[
		{
			"byteLength":54100,
			"uri":"churger.bin"
		}
	]
}
